<mxfile host="app.diagrams.net" modified="2024-07-18T06:51:11.620Z" agent="Mozilla/5.0 (Windows NT 10.0; Win64; x64) AppleWebKit/537.36 (KHTML, like Gecko) Chrome/126.0.0.0 Safari/537.36" etag="i_iNgvu1oYPzzRFv0V33" version="24.6.4" type="device">
  <diagram name="Page-1" id="dte0CrF6VS-DYXbnkwuB">
    <mxGraphModel dx="1969" dy="868" grid="1" gridSize="10" guides="1" tooltips="1" connect="1" arrows="1" fold="1" page="1" pageScale="1" pageWidth="850" pageHeight="1100" math="0" shadow="0">
      <root>
        <mxCell id="0" />
        <mxCell id="1" parent="0" />
        <mxCell id="LPhrEmIctdq5agqJqqwf-1" value="Plant" style="rounded=0;whiteSpace=wrap;html=1;" vertex="1" parent="1">
          <mxGeometry x="490" y="40" width="120" height="60" as="geometry" />
        </mxCell>
        <mxCell id="LPhrEmIctdq5agqJqqwf-2" value="Root System" style="rounded=0;whiteSpace=wrap;html=1;" vertex="1" parent="1">
          <mxGeometry x="150" y="180" width="120" height="60" as="geometry" />
        </mxCell>
        <mxCell id="LPhrEmIctdq5agqJqqwf-3" value="Shoot System" style="rounded=0;whiteSpace=wrap;html=1;" vertex="1" parent="1">
          <mxGeometry x="820" y="180" width="120" height="60" as="geometry" />
        </mxCell>
        <mxCell id="LPhrEmIctdq5agqJqqwf-4" value="Tap Root" style="rounded=0;whiteSpace=wrap;html=1;" vertex="1" parent="1">
          <mxGeometry x="70" y="320" width="120" height="60" as="geometry" />
        </mxCell>
        <mxCell id="LPhrEmIctdq5agqJqqwf-5" value="Fibrous Root" style="rounded=0;whiteSpace=wrap;html=1;" vertex="1" parent="1">
          <mxGeometry x="250" y="320" width="120" height="60" as="geometry" />
        </mxCell>
        <mxCell id="LPhrEmIctdq5agqJqqwf-7" value="Stem" style="rounded=0;whiteSpace=wrap;html=1;" vertex="1" parent="1">
          <mxGeometry x="510" y="320" width="120" height="60" as="geometry" />
        </mxCell>
        <mxCell id="LPhrEmIctdq5agqJqqwf-11" value="Leaf" style="rounded=0;whiteSpace=wrap;html=1;" vertex="1" parent="1">
          <mxGeometry x="820" y="320" width="120" height="60" as="geometry" />
        </mxCell>
        <mxCell id="LPhrEmIctdq5agqJqqwf-12" value="Blade" style="rounded=0;whiteSpace=wrap;html=1;" vertex="1" parent="1">
          <mxGeometry x="740" y="460" width="120" height="60" as="geometry" />
        </mxCell>
        <mxCell id="LPhrEmIctdq5agqJqqwf-13" value="Petiole" style="rounded=0;whiteSpace=wrap;html=1;" vertex="1" parent="1">
          <mxGeometry x="900" y="460" width="120" height="60" as="geometry" />
        </mxCell>
        <mxCell id="LPhrEmIctdq5agqJqqwf-14" value="Flower" style="rounded=0;whiteSpace=wrap;html=1;" vertex="1" parent="1">
          <mxGeometry x="1120" y="320" width="120" height="60" as="geometry" />
        </mxCell>
        <mxCell id="LPhrEmIctdq5agqJqqwf-17" value="" style="endArrow=none;html=1;rounded=0;entryX=0.5;entryY=1;entryDx=0;entryDy=0;" edge="1" parent="1" target="LPhrEmIctdq5agqJqqwf-1">
          <mxGeometry width="50" height="50" relative="1" as="geometry">
            <mxPoint x="550" y="130" as="sourcePoint" />
            <mxPoint x="600" y="190" as="targetPoint" />
          </mxGeometry>
        </mxCell>
        <mxCell id="LPhrEmIctdq5agqJqqwf-18" value="" style="endArrow=none;html=1;rounded=0;" edge="1" parent="1">
          <mxGeometry width="50" height="50" relative="1" as="geometry">
            <mxPoint x="210" y="130" as="sourcePoint" />
            <mxPoint x="880" y="130" as="targetPoint" />
          </mxGeometry>
        </mxCell>
        <mxCell id="LPhrEmIctdq5agqJqqwf-19" value="" style="endArrow=none;html=1;rounded=0;" edge="1" parent="1" source="LPhrEmIctdq5agqJqqwf-2">
          <mxGeometry width="50" height="50" relative="1" as="geometry">
            <mxPoint x="550" y="270" as="sourcePoint" />
            <mxPoint x="210" y="130" as="targetPoint" />
          </mxGeometry>
        </mxCell>
        <mxCell id="LPhrEmIctdq5agqJqqwf-20" value="" style="endArrow=none;html=1;rounded=0;" edge="1" parent="1">
          <mxGeometry width="50" height="50" relative="1" as="geometry">
            <mxPoint x="879.66" y="180" as="sourcePoint" />
            <mxPoint x="879.66" y="130" as="targetPoint" />
          </mxGeometry>
        </mxCell>
        <mxCell id="LPhrEmIctdq5agqJqqwf-22" value="" style="endArrow=none;html=1;rounded=0;entryX=0.5;entryY=1;entryDx=0;entryDy=0;" edge="1" parent="1">
          <mxGeometry width="50" height="50" relative="1" as="geometry">
            <mxPoint x="209.66000000000003" y="270" as="sourcePoint" />
            <mxPoint x="209.66000000000003" y="240" as="targetPoint" />
          </mxGeometry>
        </mxCell>
        <mxCell id="LPhrEmIctdq5agqJqqwf-25" value="" style="endArrow=none;html=1;rounded=0;entryX=0.5;entryY=1;entryDx=0;entryDy=0;" edge="1" parent="1">
          <mxGeometry width="50" height="50" relative="1" as="geometry">
            <mxPoint x="879.6600000000001" y="270" as="sourcePoint" />
            <mxPoint x="879.6600000000001" y="240" as="targetPoint" />
          </mxGeometry>
        </mxCell>
        <mxCell id="LPhrEmIctdq5agqJqqwf-26" value="" style="endArrow=none;html=1;rounded=0;" edge="1" parent="1">
          <mxGeometry width="50" height="50" relative="1" as="geometry">
            <mxPoint x="120" y="270" as="sourcePoint" />
            <mxPoint x="310" y="270" as="targetPoint" />
          </mxGeometry>
        </mxCell>
        <mxCell id="LPhrEmIctdq5agqJqqwf-27" value="" style="endArrow=none;html=1;rounded=0;" edge="1" parent="1">
          <mxGeometry width="50" height="50" relative="1" as="geometry">
            <mxPoint x="570" y="270" as="sourcePoint" />
            <mxPoint x="1180" y="270" as="targetPoint" />
          </mxGeometry>
        </mxCell>
        <mxCell id="LPhrEmIctdq5agqJqqwf-28" value="" style="endArrow=none;html=1;rounded=0;" edge="1" parent="1">
          <mxGeometry width="50" height="50" relative="1" as="geometry">
            <mxPoint x="1179.5" y="320" as="sourcePoint" />
            <mxPoint x="1179.5" y="270" as="targetPoint" />
          </mxGeometry>
        </mxCell>
        <mxCell id="LPhrEmIctdq5agqJqqwf-29" value="" style="endArrow=none;html=1;rounded=0;" edge="1" parent="1">
          <mxGeometry width="50" height="50" relative="1" as="geometry">
            <mxPoint x="879.5" y="320" as="sourcePoint" />
            <mxPoint x="879.5" y="270" as="targetPoint" />
          </mxGeometry>
        </mxCell>
        <mxCell id="LPhrEmIctdq5agqJqqwf-30" value="" style="endArrow=none;html=1;rounded=0;" edge="1" parent="1">
          <mxGeometry width="50" height="50" relative="1" as="geometry">
            <mxPoint x="570" y="320" as="sourcePoint" />
            <mxPoint x="570" y="270" as="targetPoint" />
          </mxGeometry>
        </mxCell>
        <mxCell id="LPhrEmIctdq5agqJqqwf-31" value="" style="endArrow=none;html=1;rounded=0;" edge="1" parent="1">
          <mxGeometry width="50" height="50" relative="1" as="geometry">
            <mxPoint x="309.5" y="320" as="sourcePoint" />
            <mxPoint x="309.5" y="270" as="targetPoint" />
          </mxGeometry>
        </mxCell>
        <mxCell id="LPhrEmIctdq5agqJqqwf-32" value="" style="endArrow=none;html=1;rounded=0;" edge="1" parent="1">
          <mxGeometry width="50" height="50" relative="1" as="geometry">
            <mxPoint x="120" y="320" as="sourcePoint" />
            <mxPoint x="120" y="270" as="targetPoint" />
          </mxGeometry>
        </mxCell>
        <mxCell id="LPhrEmIctdq5agqJqqwf-35" value="" style="endArrow=none;html=1;rounded=0;" edge="1" parent="1">
          <mxGeometry width="50" height="50" relative="1" as="geometry">
            <mxPoint x="799.5" y="460" as="sourcePoint" />
            <mxPoint x="799.5" y="410" as="targetPoint" />
          </mxGeometry>
        </mxCell>
        <mxCell id="LPhrEmIctdq5agqJqqwf-42" value="" style="endArrow=none;html=1;rounded=0;" edge="1" parent="1">
          <mxGeometry width="50" height="50" relative="1" as="geometry">
            <mxPoint x="959.5" y="460" as="sourcePoint" />
            <mxPoint x="959.5" y="410" as="targetPoint" />
          </mxGeometry>
        </mxCell>
        <mxCell id="LPhrEmIctdq5agqJqqwf-44" value="" style="endArrow=none;html=1;rounded=0;entryX=0.5;entryY=1;entryDx=0;entryDy=0;" edge="1" parent="1">
          <mxGeometry width="50" height="50" relative="1" as="geometry">
            <mxPoint x="879.5800000000002" y="410" as="sourcePoint" />
            <mxPoint x="879.5800000000002" y="380" as="targetPoint" />
          </mxGeometry>
        </mxCell>
        <mxCell id="LPhrEmIctdq5agqJqqwf-57" value="" style="endArrow=none;html=1;rounded=0;" edge="1" parent="1">
          <mxGeometry width="50" height="50" relative="1" as="geometry">
            <mxPoint x="800" y="410" as="sourcePoint" />
            <mxPoint x="960" y="410" as="targetPoint" />
          </mxGeometry>
        </mxCell>
        <mxCell id="LPhrEmIctdq5agqJqqwf-63" value="Node" style="rounded=0;whiteSpace=wrap;html=1;" vertex="1" parent="1">
          <mxGeometry x="430" y="460" width="120" height="60" as="geometry" />
        </mxCell>
        <mxCell id="LPhrEmIctdq5agqJqqwf-64" value="Internode" style="rounded=0;whiteSpace=wrap;html=1;" vertex="1" parent="1">
          <mxGeometry x="590" y="460" width="120" height="60" as="geometry" />
        </mxCell>
        <mxCell id="LPhrEmIctdq5agqJqqwf-65" value="" style="endArrow=none;html=1;rounded=0;" edge="1" parent="1">
          <mxGeometry width="50" height="50" relative="1" as="geometry">
            <mxPoint x="489.5" y="460" as="sourcePoint" />
            <mxPoint x="489.5" y="410" as="targetPoint" />
          </mxGeometry>
        </mxCell>
        <mxCell id="LPhrEmIctdq5agqJqqwf-66" value="" style="endArrow=none;html=1;rounded=0;" edge="1" parent="1">
          <mxGeometry width="50" height="50" relative="1" as="geometry">
            <mxPoint x="649.5" y="460" as="sourcePoint" />
            <mxPoint x="649.5" y="410" as="targetPoint" />
          </mxGeometry>
        </mxCell>
        <mxCell id="LPhrEmIctdq5agqJqqwf-67" value="" style="endArrow=none;html=1;rounded=0;entryX=0.5;entryY=1;entryDx=0;entryDy=0;" edge="1" parent="1">
          <mxGeometry width="50" height="50" relative="1" as="geometry">
            <mxPoint x="569.5800000000002" y="410" as="sourcePoint" />
            <mxPoint x="569.5800000000002" y="380" as="targetPoint" />
          </mxGeometry>
        </mxCell>
        <mxCell id="LPhrEmIctdq5agqJqqwf-68" value="" style="endArrow=none;html=1;rounded=0;" edge="1" parent="1">
          <mxGeometry width="50" height="50" relative="1" as="geometry">
            <mxPoint x="490" y="410" as="sourcePoint" />
            <mxPoint x="650" y="410" as="targetPoint" />
          </mxGeometry>
        </mxCell>
        <mxCell id="LPhrEmIctdq5agqJqqwf-69" value="Sepal" style="rounded=0;whiteSpace=wrap;html=1;" vertex="1" parent="1">
          <mxGeometry x="1040" y="460" width="120" height="60" as="geometry" />
        </mxCell>
        <mxCell id="LPhrEmIctdq5agqJqqwf-70" value="Pistil" style="rounded=0;whiteSpace=wrap;html=1;" vertex="1" parent="1">
          <mxGeometry x="1200" y="460" width="120" height="60" as="geometry" />
        </mxCell>
        <mxCell id="LPhrEmIctdq5agqJqqwf-71" value="" style="endArrow=none;html=1;rounded=0;" edge="1" parent="1">
          <mxGeometry width="50" height="50" relative="1" as="geometry">
            <mxPoint x="1099.5" y="460" as="sourcePoint" />
            <mxPoint x="1099.5" y="410" as="targetPoint" />
          </mxGeometry>
        </mxCell>
        <mxCell id="LPhrEmIctdq5agqJqqwf-72" value="" style="endArrow=none;html=1;rounded=0;" edge="1" parent="1">
          <mxGeometry width="50" height="50" relative="1" as="geometry">
            <mxPoint x="1259.5" y="460" as="sourcePoint" />
            <mxPoint x="1259.5" y="410" as="targetPoint" />
          </mxGeometry>
        </mxCell>
        <mxCell id="LPhrEmIctdq5agqJqqwf-73" value="" style="endArrow=none;html=1;rounded=0;entryX=0.5;entryY=1;entryDx=0;entryDy=0;" edge="1" parent="1">
          <mxGeometry width="50" height="50" relative="1" as="geometry">
            <mxPoint x="1179.5800000000002" y="410" as="sourcePoint" />
            <mxPoint x="1179.5800000000002" y="380" as="targetPoint" />
          </mxGeometry>
        </mxCell>
        <mxCell id="LPhrEmIctdq5agqJqqwf-74" value="" style="endArrow=none;html=1;rounded=0;" edge="1" parent="1">
          <mxGeometry width="50" height="50" relative="1" as="geometry">
            <mxPoint x="1100" y="410" as="sourcePoint" />
            <mxPoint x="1260" y="410" as="targetPoint" />
          </mxGeometry>
        </mxCell>
      </root>
    </mxGraphModel>
  </diagram>
</mxfile>
